<svg width="376" height="376" viewBox="0 0 376 376" fill="none" xmlns="http://www.w3.org/2000/svg">
<rect width="376" height="376" fill="#FFED4C"/>
<path d="M152.6 176C164.2 178.4 173.067 183.2 179.2 190.4C185.467 197.467 188.6 206.067 188.6 216.2C188.6 224.467 186.333 232.133 181.8 239.2C177.4 246.267 170.6 252 161.4 256.4C152.333 260.667 141.067 262.8 127.6 262.8C117.733 262.8 107.933 261.6 98.2 259.2C88.6 256.8 80.2667 253.4 73.2 249L87.6 219.2C93.0667 222.933 99.2 225.8 106 227.8C112.933 229.8 119.733 230.8 126.4 230.8C133.2 230.8 138.6 229.533 142.6 227C146.6 224.467 148.6 220.867 148.6 216.2C148.6 207.133 141.467 202.6 127.2 202.6H110.6V177.6L135.6 150.6H80.4V120H181.6V144.8L152.6 176ZM263.108 262.8C251.108 262.8 240.441 259.933 231.108 254.2C221.774 248.467 214.441 240.133 209.108 229.2C203.908 218.133 201.308 205.067 201.308 190C201.308 174.933 203.908 161.933 209.108 151C214.441 139.933 221.774 131.533 231.108 125.8C240.441 120.067 251.108 117.2 263.108 117.2C274.974 117.2 285.574 120.067 294.908 125.8C304.241 131.533 311.508 139.933 316.708 151C322.041 161.933 324.708 174.933 324.708 190C324.708 205.067 322.041 218.133 316.708 229.2C311.508 240.133 304.241 248.467 294.908 254.2C285.574 259.933 274.974 262.8 263.108 262.8ZM263.108 230.4C269.774 230.4 275.041 227.2 278.908 220.8C282.908 214.267 284.908 204 284.908 190C284.908 176 282.908 165.8 278.908 159.4C275.041 152.867 269.774 149.6 263.108 149.6C256.308 149.6 250.908 152.867 246.908 159.4C243.041 165.8 241.108 176 241.108 190C241.108 204 243.041 214.267 246.908 220.8C250.908 227.2 256.308 230.4 263.108 230.4Z" fill="black"/>
</svg>
